PathFileType	4	(X/Y/Z)	C:/Users/opensim2020/Desktop/walking_exp_matlab/subject01_walking04_straight_02.trc	
DataRate	CameraRate	NumFrames	NumMarkers	Units	OrigDataRate	OrigDataStartFrame	OrigNumFrames	
100.00	100.00	4	43	mm	100.00	1613	261	
Frame#	Time	LFHD			RFHD			LBHD			RBHD			C7			T10			CLAV			STRN			RBAK			LSHO			LUPA			LELB			LFRM			LWRA			LWRB			LFIN			RSHO			RUPA			RELB			RFRM			RWRA			RWRB			RFIN			LASI			RASI			LPSI			RPSI			LTHI			LKNE			LTIB			LANK			LHEE			LTOE			RTHI			RKNE			RTIB			RANK			RHEE			RTOE			*39			*40			*41			*42			
		X1	Y1	Z1	X2	Y2	Z2	X3	Y3	Z3	X4	Y4	Z4	X5	Y5	Z5	X6	Y6	Z6	X7	Y7	Z7	X8	Y8	Z8	X9	Y9	Z9	X10	Y10	Z10	X11	Y11	Z11	X12	Y12	Z12	X13	Y13	Z13	X14	Y14	Z14	X15	Y15	Z15	X16	Y16	Z16	X17	Y17	Z17	X18	Y18	Z18	X19	Y19	Z19	X20	Y20	Z20	X21	Y21	Z21	X22	Y22	Z22	X23	Y23	Z23	X24	Y24	Z24	X25	Y25	Z25	X26	Y26	Z26	X27	Y27	Z27	X28	Y28	Z28	X29	Y29	Z29	X30	Y30	Z30	X31	Y31	Z31	X32	Y32	Z32	X33	Y33	Z33	X34	Y34	Z34	X35	Y35	Z35	X36	Y36	Z36	X37	Y37	Z37	X38	Y38	Z38	X39	Y39	Z39	X40	Y40	Z40	X41	Y41	Z41	X42	Y42	Z42	X43	Y43	Z43	

196	1.950	1540.17920	-170.39540	1666.43713	1427.36572	-190.10489	1671.42944	1526.18066	-51.73936	1627.62280	1405.80920	-69.05062	1632.39514	1482.35754	-10.10482	1428.93176	1468.80298	14.92481	1133.94897	1482.08984	-156.73120	1366.68347	1482.13257	-206.28352	1214.52795	1398.52466	36.33251	1233.67334	1643.63525	-93.24810	1387.68542	1726.48938	-70.28746	1201.92566	1726.08899	-58.73874	1051.47009	1748.83459	-99.38579	944.75598	1726.41589	-179.10289	830.09491	1753.07129	-124.44102	825.12299	1757.69800	-171.48949	753.76642	1330.40503	-93.87646	1393.81958	1220.23694	-53.01955	1195.24866	1213.50842	-61.41952	1069.04480	1185.59412	-110.02200	956.66583	1211.38293	-209.15771	857.81494	1169.26392	-169.44168	850.02100	1175.35681	-221.81721	782.27344	1568.86426	-170.80879	930.75647	1351.98291	-163.24930	930.78339	1525.65344	17.63439	943.49866	1380.26538	20.36914	942.27991	1614.08154	-166.17709	600.19800	1588.81287	-170.54591	467.09378	1592.84351	-122.76389	281.96390	1531.13965	-93.87112	68.74953	1478.57776	-48.04385	40.79601	1530.97253	-242.25447	32.47080	1290.01440	-143.34653	595.68188	1305.69470	-155.93179	439.56552	1301.54504	-5.51337	349.93393	1347.96460	154.58463	219.21674	1405.72546	204.61990	232.74339	1347.34021	121.65786	75.70068	1449.70520	-178.06871	1705.58887	-3101.94629	1973.10669	1023.96686	-3140.77222	2012.51855	1021.91205			 
197	1.960	1540.48926	-181.27617	1666.73425	1427.68921	-200.84743	1671.52979	1526.70935	-62.43956	1628.38318	1406.36255	-79.68694	1632.99426	1483.45654	-20.14788	1429.75293	1470.04651	5.64926	1134.74707	1482.58374	-166.75484	1367.06091	1482.66626	-215.62987	1214.74475	1400.02954	27.04342	1234.36121	1644.28137	-103.97846	1388.42615	1727.70117	-83.00375	1202.87463	1728.36206	-72.54736	1052.11560	1751.07874	-115.67327	946.29907	1728.62036	-198.07678	833.61353	1755.35571	-143.61568	827.34753	1760.22461	-192.61522	757.29620	1330.95959	-103.46605	1394.16284	1221.59937	-61.38505	1195.48450	1214.41711	-69.56491	1069.64832	1186.24011	-116.21459	956.80121	1211.16968	-213.62041	855.88031	1169.18530	-173.33871	848.92352	1175.08350	-224.35045	780.04858	1570.20251	-179.62993	931.36609	1353.47998	-172.98343	931.79095	1525.80554	8.68470	943.87201	1380.31287	10.78452	942.94580	1614.33301	-171.15518	599.87512	1589.28284	-173.98361	466.64572	1592.97241	-124.98382	282.09854	1531.04724	-94.18147	68.89380	1478.60168	-47.96893	41.44784	1530.85815	-242.40901	32.32169	1290.73889	-160.17459	597.68158	1306.69116	-175.89450	441.63531	1303.17834	-26.51070	350.63129	1348.83826	131.93669	217.74872	1406.77637	183.04657	228.88014	1345.53528	93.00052	76.20040	1450.06848	-189.00870	1705.80957	-3101.87134	1973.05884	1023.34448	-3140.70630	2012.67273	1022.07031			 
198	1.970	1540.77747	-192.20695	1666.96863	1427.96606	-211.66496	1671.58545	1527.19641	-73.20797	1629.13135	1406.83093	-90.28394	1633.52576	1484.45496	-30.07370	1430.44165	1471.13477	-3.60782	1135.45361	1483.10535	-176.65283	1367.44421	1483.22119	-225.02638	1214.89526	1401.35278	17.80486	1235.00049	1644.91211	-114.56053	1389.09839	1728.88684	-95.46183	1203.81519	1730.63550	-86.36401	1052.81995	1753.24731	-131.99339	947.93707	1730.93469	-217.19664	837.46613	1757.55334	-162.81068	829.71222	1762.69629	-213.65742	761.18317	1331.33472	-113.16158	1394.66138	1222.90906	-69.56162	1195.67603	1215.65051	-77.38931	1070.13599	1186.88635	-122.35996	956.98694	1211.15454	-217.43602	853.85504	1169.03503	-177.23999	848.14471	1174.62598	-226.74170	777.93060	1571.52576	-188.39134	931.93530	1354.99170	-182.32039	932.73938	1525.80896	-0.09460	944.22961	1380.21863	1.03861	943.68109	1614.84180	-176.29764	599.71918	1589.76416	-177.30569	466.15564	1593.19385	-126.77273	282.12561	1530.99451	-94.43900	69.09117	1478.52710	-48.10573	41.85307	1530.84473	-242.51936	32.22921	1291.60327	-176.71556	599.57666	1307.83093	-195.29465	443.98047	1304.61560	-47.08446	351.13077	1350.12317	108.83047	215.14900	1407.49084	161.08716	223.43538	1344.82507	63.16031	76.15408	1450.29797	-200.02055	1705.95422	-3101.90234	1973.20728	1023.35815	-3140.64600	2012.55603	1021.94983			 
199	1.980	1540.97778	-203.18185	1667.13586	1428.05701	-222.48587	1671.44934	1527.61389	-84.02139	1629.80640	1407.24133	-100.90282	1634.02051	1485.30676	-40.00557	1431.01428	1472.12439	-12.83119	1136.05420	1483.57458	-186.38371	1367.70056	1483.84253	-234.36607	1215.03235	1402.47375	8.54071	1235.56543	1645.42944	-125.00423	1389.69373	1730.05090	-107.70600	1204.69458	1732.76147	-100.12712	1053.37402	1755.32556	-148.24431	949.60248	1732.99219	-236.19604	841.42737	1759.66528	-182.08551	832.22479	1765.04175	-234.75346	765.19897	1331.84668	-122.48537	1394.99097	1224.13733	-77.51682	1195.84851	1216.87866	-84.94089	1070.56506	1187.53369	-128.33755	957.07526	1210.91321	-221.64320	852.10803	1169.26099	-180.99417	847.43414	1174.05322	-229.08405	775.99365	1572.84216	-196.98183	932.49823	1356.34790	-192.17155	933.68585	1525.69299	-8.82400	944.59503	1380.01270	-8.73520	944.40521	1615.17920	-181.27553	599.44843	1590.03040	-180.79828	465.88974	1593.50183	-128.13278	282.21277	1530.97681	-94.67525	69.34652	1478.66077	-48.06369	42.34145	1530.85791	-242.61847	32.18562	1292.52319	-192.88898	601.73383	1309.02722	-214.18398	446.52469	1306.04211	-67.43552	350.85846	1351.26538	85.02039	211.34747	1408.27930	138.54893	216.90517	1344.72253	32.30159	75.68125	1450.28418	-211.01703	1705.88245	-3102.00586	1973.04541	1023.39594	-3140.56665	2012.53381	1022.02283			 
